<svg xmlns="http://www.w3.org/2000/svg" width="24" height="24"><path d="M16 3C8.832 3 3 8.832 3 16s5.832 13 13 13 13-5.832 13-13c0-3.582-1.46-6.836-3.812-9.187L27 5l-6-1 1 6 1.781-1.781A10.97 10.97 0 0 1 27 16c0 6.086-4.914 11-11 11S5 22.086 5 16 9.914 5 16 5Zm0 5c-2.75 0-5 2.25-5 5 0 1.516.707 2.863 1.781 3.781A7 7 0 0 0 9 23h2c0-2.773 2.227-5 5-5s5 2.227 5 5h2c0-2.7-1.531-5.05-3.781-6.219C20.293 15.863 21 14.516 21 13c0-2.75-2.25-5-5-5m0 2c1.668 0 3 1.332 3 3s-1.332 3-3 3-3-1.332-3-3 1.332-3 3-3" style="stroke:none;stroke-width:1;stroke-dasharray:none;stroke-linecap:butt;stroke-dashoffset:0;stroke-linejoin:miter;stroke-miterlimit:4;fill:#000;fill-rule:nonzero;opacity:1" transform="matrix(.77 0 0 .77 -.32 -.32)"/></svg>